<svg width="1990" height="1134" viewBox="0 0 1990 1134" fill="none" xmlns="http://www.w3.org/2000/svg">
<rect width="1920" height="1080" transform="translate(37 20)" fill="#121212"/>
<path d="M1857.8 283.874C1854.45 284.734 1850.92 283.333 1849.06 280.406L1804.63 210.289C1802.78 207.362 1803.02 203.573 1805.23 200.904L1858.18 136.98C1860.39 134.311 1864.07 133.369 1867.29 134.647L1944.45 165.257C1947.67 166.535 1949.71 169.742 1949.49 173.201L1944.22 256.042C1944 259.501 1941.58 262.425 1938.22 263.285L1857.8 283.874Z" fill="#FFA800"/>
<path d="M543.222 1081.68C540.45 1079.6 539.333 1075.97 540.455 1072.69L567.332 994.156C568.454 990.877 571.56 988.693 575.026 988.747L658.024 990.04C661.49 990.094 664.526 992.373 665.546 995.685L689.965 1075.02C690.984 1078.33 689.755 1081.93 686.92 1083.92L619.013 1131.66C616.177 1133.65 612.381 1133.59 609.609 1131.51L543.222 1081.68Z" fill="#007FDB"/>
<path d="M991.458 172.897C988.1 173.756 984.571 172.356 982.716 169.429L938.285 99.3123C936.43 96.3848 936.671 92.5957 938.882 89.9267L991.837 26.003C994.048 23.3341 997.726 22.3923 1000.95 23.6704L1078.11 54.2799C1081.33 55.5579 1083.36 58.765 1083.14 62.2238L1077.87 145.065C1077.65 148.524 1075.23 151.448 1071.87 152.308L991.458 172.897Z" fill="#00DB99"/>
<path d="M115.936 416.581C113.711 418.374 110.698 418.844 108.032 417.813L41.5646 392.114C38.8988 391.083 36.9853 388.709 36.5451 385.885L25.5675 315.473C25.1272 312.649 26.2269 309.805 28.4525 308.011L83.9421 263.299C86.1676 261.505 89.1808 261.036 91.8466 262.066L158.314 287.765C160.98 288.796 162.893 291.171 163.333 293.995L174.311 364.406C174.751 367.23 173.651 370.075 171.426 371.868L115.936 416.581Z" fill="#C900DB"/>
<path d="M1953.12 1009.59C1951.71 1012.08 1949.08 1013.62 1946.22 1013.64L1874.96 1014.09C1872.1 1014.11 1869.45 1012.6 1868 1010.13L1831.98 948.642C1830.54 946.176 1830.52 943.126 1831.93 940.642L1867.18 878.703C1868.59 876.219 1871.22 874.678 1874.08 874.66L1945.34 874.21C1948.2 874.192 1950.85 875.7 1952.29 878.167L1988.31 939.656C1989.76 942.122 1989.78 945.171 1988.36 947.655L1953.12 1009.59Z" fill="#00DB99"/>
<path d="M437.043 1075.57C434.84 1078.24 431.165 1079.2 427.939 1077.93L350.684 1047.57C347.458 1046.3 345.416 1043.1 345.625 1039.64L350.629 956.78C350.838 953.32 353.251 950.389 356.606 949.518L436.955 928.674C440.31 927.804 443.843 929.192 445.708 932.114L490.361 1002.09C492.226 1005.01 491.997 1008.8 489.794 1011.48L437.043 1075.57Z" fill="#FFFB9E"/>
<path d="M149.965 87.9592C150.951 91.2815 149.687 94.8614 146.832 96.8267L78.458 143.895C75.6032 145.86 71.8077 145.764 69.0564 143.656L3.16293 93.1734C0.41172 91.0657 -0.669369 87.4261 0.485067 84.1582L28.1347 5.88975C29.2891 2.62186 32.4165 0.468969 35.8812 0.557069L118.863 2.66714C122.328 2.75524 125.342 5.06428 126.329 8.38662L149.965 87.9592Z" fill="#00DB99"/>
<g filter="url(#filter0_b_651_6)">
<rect x="37" y="20" width="1920" height="1080" fill="black" fill-opacity="0.5"/>
</g>
<defs>
<filter id="filter0_b_651_6" x="-50" y="-67" width="2094" height="1254" filterUnits="userSpaceOnUse" color-interpolation-filters="sRGB">
<feFlood flood-opacity="0" result="BackgroundImageFix"/>
<feGaussianBlur in="BackgroundImage" stdDeviation="43.5"/>
<feComposite in2="SourceAlpha" operator="in" result="effect1_backgroundBlur_651_6"/>
<feBlend mode="normal" in="SourceGraphic" in2="effect1_backgroundBlur_651_6" result="shape"/>
</filter>
</defs>
</svg>
